<svg width="82" height="18" viewBox="0 0 82 18" fill="none" >
<path d="M68.0154 0.401611C68.3991 0.431362 68.7663 0.569803 69.0741 0.800718C69.5398 1.1362 70.0547 1.7551 70.4278 2.90904C70.8562 2.51913 71.3618 2.22354 71.9117 2.04142C72.0794 1.99468 72.2525 1.97037 72.4266 1.96912C72.6395 1.96931 72.8505 2.00953 73.0485 2.08769C73.3992 2.24276 73.7142 2.46818 73.9741 2.74998C74.269 3.063 74.5462 3.39225 74.8043 3.73617V3.73617C75.2123 4.31391 75.6991 4.83179 76.2506 5.27476C76.6681 5.58789 77.175 5.75917 77.6969 5.76352C77.8717 5.76254 78.046 5.74511 78.2176 5.71146H78.2812L78.3188 5.76641C79.0731 6.9376 80.132 7.88138 81.3821 8.49653L81.4515 8.52545V8.60065C81.4158 8.80152 81.4158 9.00711 81.4515 9.20798V9.28607L81.3792 9.31788C80.1231 9.93104 79.0587 10.8762 78.3014 12.0509L78.2638 12.1058H78.2002C78.0287 12.0722 77.8543 12.0548 77.6795 12.0538C77.1573 12.0592 76.6505 12.2315 76.2332 12.5454C75.6812 12.9877 75.1943 13.5057 74.787 14.084V14.084C74.5445 14.4356 74.2828 14.7735 74.0031 15.0962C73.743 15.3772 73.428 15.6016 73.0774 15.7556C72.8798 15.8351 72.6686 15.8754 72.4555 15.8742C72.2815 15.873 72.1083 15.8487 71.9407 15.8019C71.3907 15.6198 70.8852 15.3242 70.4568 14.9343H70.4394C70.0663 16.0911 69.5514 16.71 69.0857 17.0455C68.7766 17.2741 68.4101 17.4123 68.027 17.4446C67.9055 17.4446 67.6596 17.4446 67.3819 17.4446H66.9567H66.1526H15.5902H14.789H14.3638C14.0745 17.4446 13.8402 17.4446 13.7187 17.4446C13.3358 17.4118 12.9694 17.2737 12.6601 17.0455C12.1972 16.71 11.6824 16.0882 11.3092 14.9343H11.2832C10.8538 15.3243 10.3473 15.6199 9.79639 15.8019C9.62872 15.8487 9.45559 15.873 9.28152 15.8742C9.06849 15.8754 8.85726 15.8351 8.65961 15.7556C8.30894 15.6019 7.99381 15.3774 7.73398 15.0962C7.43815 14.7823 7.16003 14.4521 6.90092 14.1072C6.4936 13.5288 6.0067 13.0109 5.45462 12.5686C5.03735 12.2546 4.53055 12.0823 4.00833 12.0769C3.83448 12.0778 3.66111 12.0952 3.49057 12.129H3.42404L3.38933 12.074C2.62679 10.8949 1.55522 9.94754 0.29137 9.33523L0.219055 9.30342L0.23641 9.22533C0.258263 9.11384 0.26988 9.00057 0.27112 8.88696C0.270852 8.79682 0.263107 8.70686 0.247974 8.618V8.5428L0.317411 8.51388C1.56874 7.89954 2.62881 6.95563 3.38354 5.78376L3.41825 5.72881H3.48478C3.65532 5.76259 3.82871 5.78002 4.00256 5.78087C4.52448 5.77652 5.03131 5.60525 5.44885 5.29211C6.0002 4.84903 6.48699 4.33117 6.89514 3.75353V3.75353C7.15426 3.40955 7.43238 3.0803 7.72821 2.76733C7.98714 2.48567 8.30122 2.26024 8.65094 2.10504C8.84898 2.02689 9.05993 1.98666 9.27284 1.98647C9.44691 1.98772 9.62005 2.01203 9.78773 2.05877C10.3386 2.24076 10.8451 2.53634 11.2745 2.92639V2.92639C11.6476 1.76956 12.1625 1.15355 12.6253 0.81807C12.9331 0.587155 13.3004 0.448714 13.684 0.418964C13.8055 0.418964 14.0514 0.418964 14.3291 0.418964H14.7543H15.5584H66.1439H66.9452H67.3704C67.6596 0.418964 67.8939 0.418964 68.0154 0.418964" fill="#04AE64"/>
</svg>
